<?xml version="1.0" encoding="UTF-8"?>
<svg version="1.1" xmlns="http://www.w3.org/2000/svg" width="52" height="45">
<path d="M0 0 C17.16 0 34.32 0 52 0 C52 14.85 52 29.7 52 45 C34.84 45 17.68 45 0 45 C0 30.15 0 15.3 0 0 Z " fill="#FEFEFE" transform="translate(0,0)"/>
<path d="M0 0 C1.3308911 2.66178221 1.11268993 4.68739396 1.09765625 7.6640625 C1.09443359 8.78554688 1.09121094 9.90703125 1.08789062 11.0625 C1.07951172 12.238125 1.07113281 13.41375 1.0625 14.625 C1.05798828 15.80835938 1.05347656 16.99171875 1.04882812 18.2109375 C1.03701467 21.14067507 1.02054258 24.07031272 1 27 C0.01 27.33 -0.98 27.66 -2 28 C-2 25.03 -2 22.06 -2 19 C-2.804375 18.855625 -3.60875 18.71125 -4.4375 18.5625 C-7 18 -7 18 -8 17 C-9.24349426 5.71410902 -9.24349426 5.71410902 -6.73046875 2.25 C-4.54370705 0.80280004 -2.63865429 0 0 0 Z " fill="#2C2C2C" transform="translate(39,11)"/>
<path d="M0 0 C0.66 0 1.32 0 2 0 C2 3.63 2 7.26 2 11 C2.66 11 3.32 11 4 11 C4 7.7 4 4.4 4 1 C4.99 0.67 5.98 0.34 7 0 C7 3.63 7 7.26 7 11 C7.66 11 8.32 11 9 11 C9 7.7 9 4.4 9 1 C9.99 0.67 10.98 0.34 12 0 C12.05410687 1.77049689 12.09284119 3.54146849 12.125 5.3125 C12.14820313 6.29863281 12.17140625 7.28476562 12.1953125 8.30078125 C12 11 12 11 10 14 C9.01 14 8.02 14 7 14 C7 18.62 7 23.24 7 28 C6.01 27.67 5.02 27.34 4 27 C4 22.71 4 18.42 4 14 C2.68 13.67 1.36 13.34 0 13 C-0.94738023 10.15785932 -1.13460559 8.32391609 -1.125 5.375 C-1.12757812 4.57835937 -1.13015625 3.78171875 -1.1328125 2.9609375 C-1 1 -1 1 0 0 Z " fill="#2B2B2B" transform="translate(15,11)"/>
<path d="M0 0 C0.66 0 1.32 0 2 0 C2 3.63 2 7.26 2 11 C2.66 11 3.32 11 4 11 C4 7.7 4 4.4 4 1 C4.33 1 4.66 1 5 1 C5 4.63 5 8.26 5 12 C3.35 12.33 1.7 12.66 0 13 C-0.94738023 10.15785932 -1.13460559 8.32391609 -1.125 5.375 C-1.12757812 4.57835937 -1.13015625 3.78171875 -1.1328125 2.9609375 C-1 1 -1 1 0 0 Z " fill="#444444" transform="translate(15,11)"/>
<path d="M0 0 C0 4.29 0 8.58 0 13 C-1.32 13 -2.64 13 -4 13 C-4.08121924 11.39667209 -4.13929134 9.79215974 -4.1875 8.1875 C-4.22230469 7.29417969 -4.25710937 6.40085937 -4.29296875 5.48046875 C-4 3 -4 3 -2.55078125 1.17578125 C-1 0 -1 0 0 0 Z " fill="#F0F0F0" transform="translate(37,14)"/>
</svg>
